<svg width="57" height="56" viewBox="0 0 57 56" fill="none" xmlns="http://www.w3.org/2000/svg">
<g id="ant-design:alert-filled">
<path id="Vector" d="M28.541 13.3438C18.9983 13.3438 11.2625 21.1542 11.2625 30.7891V43.5312C11.2625 43.9954 11.4451 44.4405 11.7702 44.7687C12.0952 45.0969 12.5361 45.2812 12.9958 45.2812H44.0863C44.546 45.2812 44.9868 45.0969 45.3119 44.7687C45.6369 44.4405 45.8196 43.9954 45.8196 43.5312V30.7891C45.8196 21.1542 38.0838 13.3438 28.541 13.3438ZM30.0576 3.71875H27.0244C26.9095 3.71875 26.7993 3.76484 26.718 3.84689C26.6368 3.92894 26.5911 4.04022 26.5911 4.15625V9.40625C26.5911 9.52228 26.6368 9.63356 26.718 9.71561C26.7993 9.79766 26.9095 9.84375 27.0244 9.84375H30.0576C30.1726 9.84375 30.2828 9.79766 30.364 9.71561C30.4453 9.63356 30.491 9.52228 30.491 9.40625V4.15625C30.491 4.04022 30.4453 3.92894 30.364 3.84689C30.2828 3.76484 30.1726 3.71875 30.0576 3.71875ZM46.6727 10.4814C46.6324 10.4407 46.5846 10.4085 46.532 10.3864C46.4794 10.3644 46.423 10.3531 46.3661 10.3531C46.3091 10.3531 46.2528 10.3644 46.2001 10.3864C46.1475 10.4085 46.0998 10.4407 46.0595 10.4814L42.3828 14.1936C42.3016 14.2756 42.256 14.3869 42.256 14.5029C42.256 14.6188 42.3016 14.7301 42.3828 14.8121L44.5277 16.9777C44.609 17.0597 44.7192 17.1058 44.834 17.1058C44.9489 17.1058 45.0591 17.0597 45.1403 16.9777L48.817 13.2655C48.8982 13.1835 48.9438 13.0723 48.9438 12.9563C48.9438 12.8403 48.8982 12.7291 48.817 12.647L46.6721 10.4814H46.6727ZM10.404 10.4814L8.25907 12.647C8.17803 12.729 8.13252 12.8402 8.13252 12.956C8.13252 13.0719 8.17803 13.183 8.25907 13.265L11.9358 16.9783C11.976 17.019 12.0238 17.0512 12.0764 17.0732C12.129 17.0953 12.1854 17.1066 12.2423 17.1066C12.2993 17.1066 12.3557 17.0953 12.4083 17.0732C12.4609 17.0512 12.5087 17.019 12.5489 16.9783L14.6938 14.8127C14.7341 14.772 14.7661 14.7238 14.7879 14.6707C14.8097 14.6175 14.8209 14.5606 14.8209 14.5031C14.8209 14.4456 14.8097 14.3887 14.7879 14.3356C14.7661 14.2825 14.7341 14.2342 14.6938 14.1936L11.0166 10.4814C10.9353 10.3994 10.8252 10.3534 10.7103 10.3534C10.5954 10.3534 10.4852 10.3994 10.404 10.4814ZM45.8737 48.7812H11.2083C10.7486 48.7812 10.3078 48.9656 9.98273 49.2938C9.65768 49.622 9.47507 50.0671 9.47507 50.5312V51.8438C9.47507 51.9598 9.52072 52.0711 9.60198 52.1531C9.68325 52.2352 9.79346 52.2812 9.90838 52.2812H47.1737C47.2886 52.2812 47.3988 52.2352 47.4801 52.1531C47.5613 52.0711 47.607 51.9598 47.607 51.8438V50.5312C47.607 50.0671 47.4244 49.622 47.0993 49.2938C46.7743 48.9656 46.3334 48.7812 45.8737 48.7812ZM37.8574 31.4453V45.2812H34.3908V31.4453H37.8574Z" fill="#6F2CFF"/>
</g>
</svg>
