<svg width="57" height="56" viewBox="0 0 57 56" fill="none" xmlns="http://www.w3.org/2000/svg">
<g id="ant-design:alert-filled">
<path id="Vector" d="M28.5412 13.3438C18.9984 13.3438 11.2626 21.1542 11.2626 30.7891V43.5312C11.2626 43.9954 11.4452 44.4405 11.7703 44.7687C12.0953 45.0969 12.5362 45.2812 12.9959 45.2812H44.0864C44.5461 45.2812 44.987 45.0969 45.312 44.7687C45.6371 44.4405 45.8197 43.9954 45.8197 43.5312V30.7891C45.8197 21.1542 38.0839 13.3438 28.5412 13.3438ZM30.0578 3.71875H27.0245C26.9096 3.71875 26.7994 3.76484 26.7181 3.84689C26.6369 3.92894 26.5912 4.04022 26.5912 4.15625V9.40625C26.5912 9.52228 26.6369 9.63356 26.7181 9.71561C26.7994 9.79766 26.9096 9.84375 27.0245 9.84375H30.0578C30.1727 9.84375 30.2829 9.79766 30.3642 9.71561C30.4454 9.63356 30.4911 9.52228 30.4911 9.40625V4.15625C30.4911 4.04022 30.4454 3.92894 30.3642 3.84689C30.2829 3.76484 30.1727 3.71875 30.0578 3.71875ZM46.6728 10.4814C46.6325 10.4407 46.5847 10.4085 46.5321 10.3864C46.4795 10.3644 46.4231 10.3531 46.3662 10.3531C46.3093 10.3531 46.2529 10.3644 46.2003 10.3864C46.1477 10.4085 46.0999 10.4407 46.0596 10.4814L42.3829 14.1936C42.3017 14.2756 42.2561 14.3869 42.2561 14.5029C42.2561 14.6188 42.3017 14.7301 42.3829 14.8121L44.5279 16.9777C44.6091 17.0597 44.7193 17.1058 44.8342 17.1058C44.949 17.1058 45.0592 17.0597 45.1405 16.9777L48.8172 13.2655C48.8984 13.1835 48.944 13.0723 48.944 12.9563C48.944 12.8403 48.8984 12.7291 48.8172 12.647L46.6722 10.4814H46.6728ZM10.4041 10.4814L8.25919 12.647C8.17815 12.729 8.13264 12.8402 8.13264 12.956C8.13264 13.0719 8.17815 13.183 8.25919 13.265L11.9359 16.9783C11.9761 17.019 12.0239 17.0512 12.0765 17.0732C12.1291 17.0953 12.1855 17.1066 12.2425 17.1066C12.2994 17.1066 12.3558 17.0953 12.4084 17.0732C12.461 17.0512 12.5088 17.019 12.549 16.9783L14.694 14.8127C14.7342 14.772 14.7662 14.7238 14.788 14.6707C14.8098 14.6175 14.821 14.5606 14.821 14.5031C14.821 14.4456 14.8098 14.3887 14.788 14.3356C14.7662 14.2825 14.7342 14.2342 14.694 14.1936L11.0167 10.4814C10.9355 10.3994 10.8253 10.3534 10.7104 10.3534C10.5955 10.3534 10.4854 10.3994 10.4041 10.4814ZM45.8738 48.7812H11.2085C10.7488 48.7812 10.3079 48.9656 9.98285 49.2938C9.6578 49.622 9.47519 50.0671 9.47519 50.5312V51.8438C9.47519 51.9598 9.52084 52.0711 9.6021 52.1531C9.68337 52.2352 9.79358 52.2812 9.9085 52.2812H47.1738C47.2887 52.2812 47.3989 52.2352 47.4802 52.1531C47.5615 52.0711 47.6071 51.9598 47.6071 51.8438V50.5312C47.6071 50.0671 47.4245 49.622 47.0995 49.2938C46.7744 48.9656 46.3335 48.7812 45.8738 48.7812ZM37.8575 31.4453V45.2812H34.3909V31.4453H37.8575Z" fill="#6F2CFF"/>
</g>
</svg>
